<svg width="272" height="32" viewBox="0 0 272 32" fill="none" xmlns="http://www.w3.org/2000/svg">
<path d="M13.543 3.00176C15.9876 3.00176 18.1457 3.60172 20.0262 4.75687C21.9066 5.92097 23.2857 7.43431 24.1722 9.36851L21.1276 11.5535C19.3904 8.07009 16.9458 6.48512 13.4445 6.48512C8.80598 6.41348 4.83906 10.3893 4.9107 15.8069C4.9107 21.1887 8.59106 25.1287 13.4445 25.1287C16.8831 25.1287 19.4978 23.4363 21.3067 20.0246L24.2796 22.102C22.829 24.3496 21.3067 26.0063 19.6411 27.0629C18.0114 28.0837 15.9249 28.6121 13.3728 28.6121C6.39717 28.7195 0.872154 23.1587 1.00647 15.8069C0.863199 8.52678 6.73745 2.8943 13.543 3.00176Z" fill="#2D2D2B"/>
<path d="M38.7414 6.48489C33.8521 6.48489 30.2434 10.1473 30.2434 15.8067C30.2434 21.475 33.8611 25.1285 38.7414 25.1285C43.6306 25.1285 47.2393 21.466 47.2393 15.8067C47.2483 10.1384 43.6306 6.48489 38.7414 6.48489ZM38.7414 3.00153C45.6812 2.89408 51.251 8.45492 51.1436 15.8067C51.251 23.1585 45.6902 28.7193 38.7414 28.6118C31.8015 28.7193 26.2407 23.1585 26.3392 15.8067C26.2407 8.45492 31.8015 2.89408 38.7414 3.00153Z" fill="#2D2D2B"/>
<path d="M64.7191 24.7433C68.0144 24.7433 69.9307 23.3732 69.9307 20.7316C69.9307 18.09 68.0144 16.7557 64.7191 16.7557H59.1225V24.7433H64.7191ZM64.6475 13.4157C67.5846 13.4157 69.0442 12.3232 69.0442 10.1114C69.0442 7.92645 67.5936 6.84294 64.6475 6.84294H59.1225V13.4246H64.6475V13.4157ZM55.2988 3.4939H64.8982C69.8233 3.4939 72.7604 5.81315 72.7604 9.43979C72.7604 12.0098 71.1307 13.944 69.0084 14.8215C72.1604 15.9856 73.7544 17.9915 73.7544 20.8749C73.7544 25.3074 69.8591 28.1192 65.0773 28.1192H55.2988V3.4939Z" fill="#2D2D2B"/>
<path d="M89.5133 15.8424C93.0235 15.8424 94.7966 14.1858 94.7966 11.374C94.7966 8.52641 93.0235 6.8698 89.5133 6.8698H82.6451V15.8424H89.5133ZM78.8125 3.4939H89.6208C95.1458 3.4939 98.6202 6.44893 98.6202 11.374C98.6202 16.2991 95.1458 19.2183 89.6208 19.2183H82.6451V28.1192H78.8215V3.4939H78.8125Z" fill="#2D2D2B"/>
<path d="M102.203 3.4939H118.465V6.8698H106.027V13.6932H117.471V17.0692H106.027V24.7433H118.572V28.1192H102.203V3.4939Z" fill="#2D2D2B"/>
<path d="M123.561 3.4939H127.635L136.034 24.215L144.47 3.4939H148.544V28.1192H144.828V11.0964C144.47 12.4665 144.085 13.7022 143.619 14.7588L137.951 28.1281H134.163L128.495 14.7588C128.136 13.9529 127.716 12.7172 127.259 11.0964V28.1281H123.578V3.4939H123.561Z" fill="#2D2D2B"/>
<path d="M153.951 3.4939H170.213V6.8698H157.775V13.6932H169.219V17.0692H157.775V24.7433H170.311V28.1192H153.951V3.4939Z" fill="#2D2D2B"/>
<path d="M175.963 3.4939H179.787V13.8365H191.481V3.4939H195.305V28.1192H191.481V17.2841H179.787V28.1192H175.963V3.4939Z" fill="#2D2D2B"/>
<path d="M201.285 3.4939H205.118V13.8365H216.804V3.4939H220.627V28.1192H216.804V17.2841H205.118V28.1192H201.285V3.4939Z" fill="#2D2D2B"/>
<path d="M226.618 3.4939H230.299V22.8449C230.549 22.3166 230.899 21.6808 231.364 20.9107L242.271 3.4939H246.166V28.1192H242.486V8.69655C242.092 9.46665 241.743 10.1024 241.42 10.6308L230.505 28.1192H226.609V3.4939H226.618Z" fill="#2D2D2B"/>
<path d="M270.757 28.1192H265.939L258.006 19.0392L255.982 16.7557V28.1192H252.158V3.4939H255.982V14.0514C256.376 13.5589 257.083 12.753 258.104 11.6247L265.33 3.4939H270.291L259.447 15.2782L270.757 28.1192Z" fill="#2D2D2B"/>
</svg>
